<svg t="1706524605998" class="icon" viewBox="0 0 1024 1024" version="1.1" xmlns="http://www.w3.org/2000/svg" p-id="911" width="200" height="200"><path d="M98.816 66.176a42.666667 42.666667 0 0 0-26.965333 80.981333l39.765333 13.226667 102.357333 593.493333A42.666667 42.666667 0 0 0 256 789.333333h554.666667a42.666667 42.666667 0 1 0 0-85.333333H291.925333l-3.669333-21.333333H810.666667a42.666667 42.666667 0 0 0 40.874666-30.421334l128-426.666666A42.666667 42.666667 0 0 0 938.666667 170.666667H199.978667l-8.618667-49.92a42.666667 42.666667 0 0 0-28.544-33.237334l-64-21.333333zM214.698667 256h666.624l-102.4 341.333333H273.493333L214.698667 256zM810.666667 874.666667a64 64 0 1 1-128 0 64 64 0 0 1 128 0zM384 874.666667a64 64 0 1 1-128 0 64 64 0 0 1 128 0z"  p-id="912"></path></svg>