<svg t="1706526756885" class="icon" viewBox="0 0 1024 1024" version="1.1" xmlns="http://www.w3.org/2000/svg" p-id="1756" width="200" height="200"><path d="M85.333333 213.333333a128 128 0 0 1 128-128h597.333334a128 128 0 0 1 128 128v597.333334a128 128 0 0 1-128 128H213.333333a128 128 0 0 1-128-128V213.333333z m128-42.666666a42.666667 42.666667 0 0 0-42.666666 42.666666v597.333334a42.666667 42.666667 0 0 0 42.666666 42.666666h597.333334a42.666667 42.666667 0 0 0 42.666666-42.666666V213.333333a42.666667 42.666667 0 0 0-42.666666-42.666666H213.333333z" fill="#1afa29" p-id="1757"></path><path d="M640 682.666667V384h85.333333v298.666667h-85.333333zM298.666667 682.666667v-213.333334h85.333333v213.333334H298.666667zM469.333333 682.666667V341.333333h85.333334v341.333334h-85.333334z"  p-id="1758"></path></svg>